# xmcd CD database file
#
# Track frame offsets:
#	150
#	26870
#	48425
#	63990
#	76777
#	98410
#	116260
#	132395
#	146530
#	165052
#	183570
#	197237
#
# Disc length: 3075 seconds
#
# Revision: 4
# Processed by: cddbd v1.4PL0 Copyright (c) Steve Scherf et al.
# Submitted via: CDex 1.51
#
DISCID=960c010c
DTITLE=James Harman Band - Two Sides to Every Story
DYEAR=1993
DGENRE=Blues
TTITLE0=My Little Girl
TTITLE1=Two Sides To Every Story
TTITLE2=The Clown
TTITLE3=Grindin' Bump
TTITLE4=If The Shoe Fits (Wear It)
TTITLE5=Dirt Road
TTITLE6=Is It Yes
TTITLE7=I'm Lookin' Sharp
TTITLE8=So Tired 'O Travelin (Suitcase Blues)
TTITLE9=Darlin'
TTITLE10=Drive-In Life
TTITLE11=Tall Skinny Mama (Icepick's story #389)
EXTD=YEAR: 1993
EXTT0=
EXTT1=
EXTT2=
EXTT3=
EXTT4=
EXTT5=
EXTT6=
EXTT7=
EXTT8=
EXTT9=
EXTT10=
EXTT11=
PLAYORDER=
